<?xml version="1.0" encoding="utf-8"?>
<!-- Generator: Adobe Illustrator 22.1.0, SVG Export Plug-In . SVG Version: 6.00 Build 0)  -->
<svg version="1.1" id="圖層_1" xmlns="http://www.w3.org/2000/svg" xmlns:xlink="http://www.w3.org/1999/xlink" x="0px" y="0px"
	 viewBox="0 0 180 35.9" style="enable-background:new 0 0 180 35.9;" xml:space="preserve">
<style type="text/css">
	.st0{fill:#FFFFFF;}
	.st1{opacity:0.7;}
</style>
<title>chatime-logo</title>
<path class="st0" d="M44.1,4.8c-3.4,1.2-5.9,0.2-7.7,0c-0.9-0.1-1.8-0.1-2.6,0c-0.5,0-1,0.1-1.5,0.2c-4,0.8-6.3,4-7.6,7.5
	c0-0.2,0-0.3,0-0.5c0.3-4.5-1.2-11.1-6.7-11.8C14-0.5,10.1,0.7,7.1,3.3H7L6.8,3.6l0,0c-4.3,3.6-4.7,8.2-2.9,14.6
	c0.4,1.4,1,2.8,1.8,4V22l0,0c-1.4-5.9,0.8-12,5.5-15.7c5.3-4.4,9.9-2.4,11.5,1.7c0.5,1.4,0.7,2.8,0.7,4.3c0,1.7-0.4,3.4-1.2,4.9l0,0
	c-0.4,0.8-0.7,1.6-1,2.4c-0.6,1.5-1,2.5-1.3,3.4l0,0V23c-0.1,0.2,0,0.5,0.2,0.6c0,0,0.1,0,0.1,0c0.3,0.1,0.5-0.1,0.7-0.3L21,23v-0.1
	c1-2.7,2.2-5.4,3.5-7.9c0.2-0.3,0.4-0.7,0.5-0.9V14c0.1-0.2,0.3-0.4,0.4-0.6l0,0c0.2-0.2,0.3-0.4,0.5-0.6l0,0l0,0l0.1-0.1
	c0.5-0.5,1.1-0.7,1.8-0.7h0.1c0.9-0.1,1.7,0,3.1,0.1c0.6,0,1.2-0.1,1.8-0.2c0.5-0.1,1-0.2,1.4-0.3l0,0C38.4,10.3,40.8,8.2,44.1,4.8z
	"/>
<g class="st1">
	<path class="st0" d="M8.2,29.4c-0.5-1.7-1.2-3.3-1.9-4.9c0.6,2.1-0.6,3.6-1.6,4.9S4.3,32.9,6,32.9S8.9,31.4,8.2,29.4z"/>
	<path class="st0" d="M3.9,18.1C2.3,12.5,2.4,8.3,5.5,4.8c-3,0.6-6.1,3.2-5.3,8.5c0.3,1.6,1,3.1,2,4.4c1.2,1.6,2.6,2.8,3.3,3.9
		C4.8,20.5,4.3,19.4,3.9,18.1z"/>
	<polygon class="st0" points="5.8,22.2 5.8,22.2 5.8,22.2 	"/>
</g>
<path class="st0" d="M81,20.9c-5-0.5-7.9,3.6-10.4,5.9C73,20,76.2,13.6,80.1,7.6c1-1.6,0-2.5-1.1-2.6c-1.6-0.3-3.3,0.4-4.1,1.8
	c-2.3,3.7-4.2,7.7-5.7,11.8c-4,10.2-4.7,14.7-2.5,15.1c1.9,0.3,2.8-0.7,4.2-2c4.1-4,6.9-7,8.7-6.4s1.6,3.4,1.8,7.3
	c0.1,1.4,0.2,1.8,1.7,1.7c0.9,0,1.7-0.7,1.8-1.6C85.5,26.2,85,21.3,81,20.9z"/>
<path class="st0" d="M131.7,15.1c1.4,0.7,3.1,0.3,3.9-1.1c0.9-1.4,1.1-3.4-0.4-4c-1.4-0.7-3.1-0.2-3.9,1c-1,1.2-0.8,2.9,0.3,3.9
	C131.6,15,131.6,15.1,131.7,15.1z"/>
<path class="st0" d="M131.6,18c-1.3-1.2-2.4-1.3-3.5,0.2c-1.6,2.1-5,10.2-5.5,13.4c-0.2,1.7-0.2,2.5,1,2.6c1.1,0.1,2.2-0.3,2.9-2.2
	c1.2-3.4,2.7-6.7,4.5-9.8C132.8,19.6,132.4,18.6,131.6,18z"/>
<path class="st0" d="M116.9,30.3c-0.4,0.2-2.3,1-2.5-0.5c-0.1-1.3,1.4-4.9,3-8.5c0.3-0.7,0.8-1.7,1.4-2.8c2.7-0.5,4.9-0.8,5.6-0.9
	c1.4-0.2,1.7-1,2-1.9c0.3-0.9-0.3-1.1-1.8-1.1c-1.2,0-2.5,0-3.8,0.1c1.4-2.7,3-5.3,3.9-6.6c1.3-1.9,1-2.8-0.7-3
	c-1.4-0.2-2.8,0.4-3.6,1.6c-1.8,2.8-3.5,5.6-5,8.6c-2,0.3-3.9,0.6-5.7,0.9c-1.3,0.2-2.4,1.2-2.5,2.5c-0.7,2.7,1.1,2.3,3.3,1.7
	c0.9-0.2,1.8-0.4,2.8-0.6c-2.3,5.2-3.6,8.7-3.3,11.2c0.4,3.6,4.8,4.5,8.1,1.9c0,0,1.2-0.9,0.9-2C118.6,29,118,29.7,116.9,30.3z"/>
<path class="st0" d="M66.5,12.2c0.1-0.1,0.2-0.3,0.3-0.4c0.9-1.6,0.7-3.5-0.6-4.8c-1.3-1.4-3.1-2.1-5.1-2.2h-0.6
	c-6.8,0.3-15.8,6.8-20.9,14.2c-6.6,9.7-3.4,16.8,4.8,17c6.1,0,12.1-1.8,17-5.4c1.2-0.8,2.1-1.3,2.1-3c0-0.1,0-0.1,0-0.2l0,0
	c0-0.1,0-0.2,0-0.3c-0.2-1.4-0.8-1.6-1.5-1.5c-0.9,0.3-1.7,0.7-2.4,1.2l0,0l-1.3,0.7c-5.5,3.1-17.4,5.3-16.7-0.1
	c0.4-3,2.8-7.9,9.4-13.5c3.6-2.9,8.5-5.2,11.1-4.2l0,0l0.2,0.1c0.7,0.5,1.2,1.3,1.5,2.1C64.4,12.8,65.2,13.7,66.5,12.2z"/>
<path class="st0" d="M176.2,18c-5.2,0.1-10,2.8-12.8,7.2c-0.9,1.5-1.4,3.3-1.4,5c0,0.1,0,0.2,0,0.3c0,0.1,0,0.2,0,0.3
	c0,0.1,0,0.2,0.1,0.3l0,0c0.5,2,2.3,3,5,3.2h0.6h0.3c2.7,0.1,5.4-0.6,7.6-2.2c0.8-0.6,1.2-1.7,1-2.7c-0.2-0.6-0.6-1.1-1.8-0.1
	l-0.7,0.4l0,0c-0.4,0.2-0.8,0.4-1.2,0.6c-1.8,0.9-3.9,1.1-5.9,0.4c-0.6-0.2-1.1-0.8-1.1-1.5c0,0,0-0.1,0-0.2h0.1
	c4,0.4,7.9-0.9,10.9-3.5C181.6,21.6,180.6,17.9,176.2,18z M167.1,26.4c3.1-4.9,7.7-5.5,8.3-5.2C176.3,21.7,174.1,25.5,167.1,26.4z"
	/>
<path class="st0" d="M157.5,19.5c-3.6-0.2-6.3,3.5-8.1,5.2c2-5.4-0.5-6.5-2.2-6.3c-2.8,0.3-5.9,2.4-9.9,6.7c0.8-1.4,1.8-3.2,2.4-4.3
	c1.2-2.1,0.2-2.7-1.3-2.7c-1.1-0.1-2.1,0.4-2.6,1.4c-1.5,2.3-2.6,4.8-3.4,7.5c-0.4,1.2-0.7,2.4-0.9,3.6l0,0v0.1
	c-0.4,2.5,0.2,3.2,1.1,3.3c1,0.1,1.9-0.3,2.5-1l0,0l0.1-0.2l0,0c0.8-0.9,1.9-2.5,4.3-5.3c2.8-3,5.1-5,6.4-4.6
	c0.7,0.3-0.4,2.1-2.1,8.8c-0.4,1.3,0.7,1.8,1.5,1.8c0.8,0.1,1.6-0.3,2.6-1.8c1.8-2.8,4-5.3,6.4-7.6c2.1-1.8,2.5-0.6,1.9,1.7
	c-0.6,2.1-1.4,4.2-2.4,6.1c-0.7,1.4,0.1,1.9,0.9,2.1s2.2,0.2,3.1-1.8c1.1-2.4,2-5,2.4-7.6C160.9,21.9,160,19.7,157.5,19.5z"/>
<path class="st0" d="M105.1,31.4c-0.5-0.3-0.9-0.7-1.1-1.2v-0.1l-0.1-0.2c-0.4-1.3-0.2-3.3-0.8-3.7c-0.8-0.5-1.8-0.5-2.5,0.1
	c-0.4,0.3-0.9,0.7-1.6,1.2l-0.6,0.4L98,28.1l-0.3,0.2l-0.3,0.1l-0.3,0.1c-1.1,0.6-2.3,1.1-3.6,1.4l0,0c-0.4,0.1-0.8,0.1-1.2,0
	c-0.6-0.1-0.6-0.7,0-1.8c0.9-1.6,2-3.1,3.4-4.3c2.1-1.8,3.4-2.2,4.1-2.2c1.9-0.1-0.4,2.9,2.5,3c1.3,0,1.9-0.8,2.2-2.3
	c0.5-2.6-0.7-4-3-4.4c-3.3-0.5-9.6,2.2-12.6,8c-2,3.4-1.9,6.9,0.6,7.8c2.7,1,7-0.1,10.8-2.7c0.6,1.8,2.2,3.1,4.1,3.5
	c1.6,0.2,3.1-0.5,3.1-2C107.6,31.3,106.1,32.1,105.1,31.4z"/>
</svg>
